<?xml version="1.0" encoding="UTF-8"?>
<svg width="25" height="25" fill="none" version="1.1" xmlns="http://www.w3.org/2000/svg">
 <path d="m24.82 14.628c0.1186-0.6915 0.1804-1.4025 0.1804-2.1278 0-6.9036-5.5964-12.5-12.5-12.5-4.186 0-7.8915 2.0577-10.16 5.2167 1.2677-0.17534 2.5212-0.09407 3.7633 0.22137 3.1334 0.79571 5.7985 3.0288 7.9591 4.8476l0.172 0.1449c2.2876 1.9264 4.1457 3.4911 6.1386 4.2322 1.2915 0.4803 2.706 0.6328 4.4467-0.035zm-2.3766 5.4487c-2.2838 2.9926-5.8879 4.9235-9.943 4.9235-6.9036 0-12.5-5.5964-12.5-12.5 0-0.3572 0.01498-0.7108 0.044347-1.0604 2.0635-1.4116 3.5859-1.4708 4.8282-1.1553 1.8311 0.465 3.6339 1.8601 5.9695 3.8265 0.1387 0.1167 0.2794 0.2356 0.4222 0.3563 2.0505 1.7329 4.5282 3.8269 7.3658 4.8822 1.2263 0.456 2.497 0.7147 3.8129 0.7272z" clip-rule="evenodd" fill="#3cddf3" fill-rule="evenodd"/>
</svg>
